<mxfile host="app.diagrams.net" agent="Mozilla/5.0 (Macintosh; Intel Mac OS X 10_15_7) AppleWebKit/537.36 (KHTML, like Gecko) Chrome/136.0.0.0 Safari/537.36 Edg/136.0.0.0" version="27.1.1">
  <diagram name="Page-1" id="ukwk7Ntun-ERX5L1msp1">
    <mxGraphModel grid="1" page="1" gridSize="10" guides="1" tooltips="1" connect="1" arrows="1" fold="1" pageScale="1" pageWidth="850" pageHeight="1100" math="0" shadow="0">
      <root>
        <mxCell id="0" />
        <mxCell id="1" parent="0" />
        <mxCell id="EMGmxgtZmT-lsSBBqjUw-5" style="edgeStyle=orthogonalEdgeStyle;rounded=0;orthogonalLoop=1;jettySize=auto;html=1;entryX=0.5;entryY=0;entryDx=0;entryDy=0;curved=1;" edge="1" parent="1" source="EMGmxgtZmT-lsSBBqjUw-1" target="EMGmxgtZmT-lsSBBqjUw-2">
          <mxGeometry relative="1" as="geometry" />
        </mxCell>
        <mxCell id="EMGmxgtZmT-lsSBBqjUw-1" value="&lt;div&gt;&lt;font style=&quot;&quot;&gt;&lt;span style=&quot;font-size: 17px;&quot;&gt;📝&lt;/span&gt;&lt;/font&gt;&lt;/div&gt;&lt;font style=&quot;font-size: 17px;&quot;&gt;Specification&lt;/font&gt;" style="rounded=1;whiteSpace=wrap;html=1;" vertex="1" parent="1">
          <mxGeometry x="365" y="150" width="120" height="60" as="geometry" />
        </mxCell>
        <mxCell id="EMGmxgtZmT-lsSBBqjUw-6" style="edgeStyle=orthogonalEdgeStyle;rounded=0;orthogonalLoop=1;jettySize=auto;html=1;entryX=1;entryY=0.75;entryDx=0;entryDy=0;curved=1;" edge="1" parent="1" target="EMGmxgtZmT-lsSBBqjUw-1">
          <mxGeometry relative="1" as="geometry">
            <mxPoint x="540" y="240" as="sourcePoint" />
            <Array as="points">
              <mxPoint x="540" y="195" />
            </Array>
          </mxGeometry>
        </mxCell>
        <mxCell id="EMGmxgtZmT-lsSBBqjUw-17" style="edgeStyle=orthogonalEdgeStyle;rounded=0;orthogonalLoop=1;jettySize=auto;html=1;" edge="1" parent="1" source="EMGmxgtZmT-lsSBBqjUw-2" target="EMGmxgtZmT-lsSBBqjUw-3">
          <mxGeometry relative="1" as="geometry" />
        </mxCell>
        <mxCell id="EMGmxgtZmT-lsSBBqjUw-2" value="&lt;div&gt;&lt;font style=&quot;&quot;&gt;&lt;span style=&quot;font-size: 17px;&quot;&gt;🔍&lt;/span&gt;&lt;/font&gt;&lt;/div&gt;&lt;font style=&quot;font-size: 17px;&quot;&gt;Model Checking&lt;/font&gt;" style="rounded=1;whiteSpace=wrap;html=1;" vertex="1" parent="1">
          <mxGeometry x="365" y="270" width="120" height="90" as="geometry" />
        </mxCell>
        <mxCell id="EMGmxgtZmT-lsSBBqjUw-8" style="edgeStyle=orthogonalEdgeStyle;rounded=0;orthogonalLoop=1;jettySize=auto;html=1;" edge="1" parent="1" source="EMGmxgtZmT-lsSBBqjUw-3" target="EMGmxgtZmT-lsSBBqjUw-4">
          <mxGeometry relative="1" as="geometry" />
        </mxCell>
        <mxCell id="EMGmxgtZmT-lsSBBqjUw-14" style="edgeStyle=orthogonalEdgeStyle;rounded=0;orthogonalLoop=1;jettySize=auto;html=1;entryX=0;entryY=0.5;entryDx=0;entryDy=0;" edge="1" parent="1" source="EMGmxgtZmT-lsSBBqjUw-3" target="EMGmxgtZmT-lsSBBqjUw-1">
          <mxGeometry relative="1" as="geometry">
            <Array as="points">
              <mxPoint x="300" y="450" />
              <mxPoint x="300" y="180" />
            </Array>
          </mxGeometry>
        </mxCell>
        <mxCell id="EMGmxgtZmT-lsSBBqjUw-15" value="&lt;font style=&quot;font-size: 15px;&quot;&gt;&lt;span style=&quot;text-wrap-mode: wrap; background-color: rgb(236, 236, 236);&quot;&gt;🔄&lt;/span&gt;&lt;/font&gt;&lt;div&gt;&lt;font style=&quot;font-size: 15px;&quot;&gt;Fix Flaws&lt;/font&gt;&lt;/div&gt;&lt;div&gt;&lt;font style=&quot;font-size: 15px;&quot;&gt;Redefine&lt;/font&gt;&lt;/div&gt;&lt;div&gt;&lt;font style=&quot;font-size: 15px;&quot;&gt;Invariant&lt;/font&gt;&lt;/div&gt;" style="edgeLabel;html=1;align=center;verticalAlign=middle;resizable=0;points=[];" vertex="1" connectable="0" parent="EMGmxgtZmT-lsSBBqjUw-14">
          <mxGeometry x="-0.135" y="1" relative="1" as="geometry">
            <mxPoint y="38" as="offset" />
          </mxGeometry>
        </mxCell>
        <mxCell id="EMGmxgtZmT-lsSBBqjUw-3" value="&lt;div&gt;&lt;span style=&quot;font-size: 17px;&quot;&gt;✅&lt;/span&gt;&lt;/div&gt;&lt;font style=&quot;font-size: 17px;&quot;&gt;Theorem Proving&lt;/font&gt;" style="rounded=1;whiteSpace=wrap;html=1;" vertex="1" parent="1">
          <mxGeometry x="365" y="420" width="120" height="90" as="geometry" />
        </mxCell>
        <mxCell id="EMGmxgtZmT-lsSBBqjUw-4" value="&lt;div&gt;&lt;font style=&quot;&quot;&gt;&lt;span style=&quot;background-color: transparent; font-size: 17px;&quot;&gt;⚙️&lt;/span&gt;&lt;span style=&quot;font-size: 17px;&quot;&gt;&amp;nbsp;&lt;/span&gt;&lt;/font&gt;&lt;/div&gt;&lt;font style=&quot;font-size: 17px;&quot;&gt;Runtime Verification&lt;/font&gt;" style="rounded=1;whiteSpace=wrap;html=1;" vertex="1" parent="1">
          <mxGeometry x="365" y="560" width="120" height="80" as="geometry" />
        </mxCell>
        <mxCell id="EMGmxgtZmT-lsSBBqjUw-10" value="" style="edgeStyle=orthogonalEdgeStyle;rounded=0;orthogonalLoop=1;jettySize=auto;html=1;curved=1;" edge="1" parent="1" source="EMGmxgtZmT-lsSBBqjUw-2">
          <mxGeometry relative="1" as="geometry">
            <mxPoint x="455" y="280" as="sourcePoint" />
            <mxPoint x="540" y="290" as="targetPoint" />
            <Array as="points">
              <mxPoint x="540" y="320" />
            </Array>
          </mxGeometry>
        </mxCell>
        <mxCell id="EMGmxgtZmT-lsSBBqjUw-9" value="&lt;font style=&quot;font-size: 15px;&quot;&gt;❌&lt;/font&gt;&lt;div&gt;&lt;font style=&quot;font-size: 15px;&quot;&gt;Counter Example&lt;/font&gt;&lt;/div&gt;" style="text;html=1;align=center;verticalAlign=middle;whiteSpace=wrap;rounded=0;" vertex="1" parent="1">
          <mxGeometry x="510" y="250" width="60" height="30" as="geometry" />
        </mxCell>
        <mxCell id="EMGmxgtZmT-lsSBBqjUw-16" style="edgeStyle=orthogonalEdgeStyle;rounded=0;orthogonalLoop=1;jettySize=auto;html=1;elbow=horizontal;" edge="1" parent="1" source="EMGmxgtZmT-lsSBBqjUw-3" target="EMGmxgtZmT-lsSBBqjUw-3">
          <mxGeometry relative="1" as="geometry" />
        </mxCell>
        <mxCell id="EMGmxgtZmT-lsSBBqjUw-18" value="&lt;font style=&quot;font-size: 15px;&quot;&gt;&lt;span style=&quot;text-wrap-mode: wrap; background-color: rgb(236, 236, 236);&quot;&gt;🔄&lt;/span&gt;&lt;/font&gt;&lt;div&gt;&lt;font style=&quot;font-size: 15px;&quot;&gt;Refinement&lt;/font&gt;&lt;/div&gt;" style="edgeLabel;html=1;align=center;verticalAlign=middle;resizable=0;points=[];" vertex="1" connectable="0" parent="1">
          <mxGeometry x="550" y="465" as="geometry" />
        </mxCell>
      </root>
    </mxGraphModel>
  </diagram>
</mxfile>
